M48
METRIC,LZ,000.000
;FILE_FORMAT=3:3
;TYPE=PLATED
;Layer: PTH_Through_Via
;EasyEDA v6.5.40, 2025-01-31 22:11:59
;63179efdc9ef42fbbe513a6e2370b4ab,79498b06e10c4258a2922cdf157d59c5,10
;Gerber Generator version 0.2
;Holesize 1 = 0.301 mm
T01C0.301
;Holesize 2 = 0.310 mm
T02C0.310
%
G05
G90
T01
X021726Y-010847
X026650Y-014706
X009896Y-018074
X008297Y-018409
X019346Y-013290
X028384Y-017585
X028200Y-012705
X035611Y-016815
X029842Y-018398
X033623Y-017973
X046318Y-017973
X025527Y-006751
X040349Y-012924
T02
X060887Y-018513
X060087Y-014600
X047300Y-013700
X042445Y-008700
X029700Y-006300
X024100Y-011600
X009101Y-012699
M30
