M48
METRIC,LZ,000.000
;FILE_FORMAT=3:3
;TYPE=PLATED
;Layer: PTH_Through
;EasyEDA v6.5.40, 2025-01-31 22:11:59
;63179efdc9ef42fbbe513a6e2370b4ab,79498b06e10c4258a2922cdf157d59c5,10
;Gerber Generator version 0.2
;Holesize 1 = 0.301 mm
T01C0.301
;Holesize 2 = 0.310 mm
T02C0.310
;Holesize 3 = 0.600 mm
T03C0.600
;Holesize 4 = 0.889 mm
T04C0.889
;Holesize 5 = 0.901 mm
T05C0.901
;Holesize 6 = 1.000 mm
T06C1.000
;Holesize 7 = 1.021 mm
T07C1.021
;Holesize 8 = 1.101 mm
T08C1.101
%
G05
G90
T01
X021726Y-010847
X026650Y-014706
X009896Y-018074
X008297Y-018409
X019346Y-013290
X028384Y-017585
X028200Y-012705
X035611Y-016815
X029842Y-018398
X033623Y-017973
X046318Y-017973
X025527Y-006751
X040349Y-012924
T02
X060887Y-018513
X060087Y-014600
X047300Y-013700
X042445Y-008700
X029700Y-006300
X024100Y-011600
X009101Y-012699
T03
X004860Y-014180G85X005460Y-014180
X004860Y-022820G85X005460Y-022820
X001060Y-014180G85X001660Y-014180
X001060Y-022820G85X001660Y-022820
T04
X008370Y-002230
X008370Y-004770
X010910Y-002230
X010910Y-004770
X013450Y-002230
X013450Y-004770
X015990Y-002230
X015990Y-004770
X018530Y-002230
X018530Y-004770
X021070Y-002230
X021070Y-004770
X023610Y-002230
X023610Y-004770
X026150Y-002230
X026150Y-004770
X028690Y-002230
X028690Y-004770
X031230Y-002230
X031230Y-004770
X033770Y-002230
X033770Y-004770
X036310Y-002230
X036310Y-004770
X038850Y-002230
X038850Y-004770
X041390Y-002230
X041390Y-004770
X043930Y-002230
X043930Y-004770
X046470Y-002230
X046470Y-004770
X049010Y-002230
X049010Y-004770
X051550Y-002230
X051550Y-004770
X054090Y-002230
X054090Y-004770
X056630Y-002230
X056630Y-004770
T05
X014755Y-018065
X016025Y-015525
X017295Y-018065
X018565Y-015525
X019835Y-018065
X021105Y-015525
X022375Y-018065
X023645Y-015525
T06
X011325Y-021765G85X011325Y-020965
X027075Y-021765G85X027075Y-020965
T07
X012570Y-028475
X015110Y-028475
X023290Y-028475
X025830Y-028475
T08
X002430Y-007700
X004970Y-007700
X002430Y-011300
X004970Y-011300
M30
