G04 Layer: BottomSolderMaskLayer*
G04 EasyEDA v6.5.40, 2025-01-31 22:11:59*
G04 63179efdc9ef42fbbe513a6e2370b4ab,79498b06e10c4258a2922cdf157d59c5,10*
G04 Gerber Generator version 0.2*
G04 Scale: 100 percent, Rotated: No, Reflected: No *
G04 Dimensions in millimeters *
G04 leading zeros omitted , absolute positions ,4 integer and 5 decimal *
%FSLAX45Y45*%
%MOMM*%

%AMMACRO1*1,1,$1,$2,$3*1,1,$1,$4,$5*1,1,$1,0-$2,0-$3*1,1,$1,0-$4,0-$5*20,1,$1,$2,$3,$4,$5,0*20,1,$1,$4,$5,0-$2,0-$3,0*20,1,$1,0-$2,0-$3,0-$4,0-$5,0*20,1,$1,0-$4,0-$5,$2,$3,0*4,1,4,$2,$3,$4,$5,0-$2,0-$3,0-$4,0-$5,$2,$3,0*%
%ADD10MACRO1,0.1016X-1.1X-1.75X1.1X-1.75*%
%ADD11R,2.3016X1.2016*%
%ADD12R,1.0016X0.9016*%
%ADD13MACRO1,0.1016X0.4X0.45X-0.4X0.45*%
%ADD14MACRO1,0.1016X0.45X-0.4X0.45X0.4*%
%ADD15MACRO1,0.1016X-0.4X-0.45X0.4X-0.45*%
%ADD16R,0.9656X0.9081*%
%ADD17MACRO1,0.1016X-0.432X-0.4032X0.432X-0.4032*%
%ADD18MACRO1,0.1016X-0.432X0.4032X0.432X0.4032*%
%ADD19MACRO1,0.1016X-0.75X-0.6794X0.75X-0.6794*%
%ADD20MACRO1,0.1016X2.75X0.7X-2.75X0.7*%
%ADD21O,0.6755891999999999X2.4896064*%
%ADD22MACRO1,0.1016X-0.7874X-0.7874X0.7874X-0.7874*%
%ADD23C,1.6764*%
%ADD24O,1.7999964X1.1999976*%
%ADD25MACRO1,0.1016X-0.85X0.7874X0.85X0.7874*%
%ADD26C,1.8016*%
%ADD27C,1.7000*%
%ADD28C,1.8000*%
%ADD29O,1.9000215999999999X3.1000191999999998*%

%LPD*%
D10*
G01*
X5120109Y-1699996D03*
D11*
G01*
X5739869Y-1929993D03*
G01*
X5739869Y-1699996D03*
G01*
X5739869Y-1469999D03*
D12*
G01*
X6239987Y-1599999D03*
G01*
X6239987Y-1459994D03*
D13*
G01*
X5329989Y-1229997D03*
G01*
X5469989Y-1229997D03*
D14*
G01*
X1119885Y-1090018D03*
G01*
X1119885Y-1230017D03*
G01*
X4869942Y-2360018D03*
G01*
X4869942Y-2500017D03*
G01*
X5050028Y-2360018D03*
G01*
X5050028Y-2500017D03*
G01*
X5230113Y-2360018D03*
G01*
X5230113Y-2500017D03*
G01*
X5409946Y-2360018D03*
G01*
X5409946Y-2500017D03*
D15*
G01*
X3619903Y-2569972D03*
G01*
X3479904Y-2569972D03*
G01*
X3319929Y-2569972D03*
G01*
X3179930Y-2569972D03*
D13*
G01*
X760072Y-2249932D03*
G01*
X900071Y-2249932D03*
D16*
G01*
X910081Y-2095398D03*
G01*
X910081Y-1944725D03*
D17*
G01*
X910081Y-1584565D03*
D18*
G01*
X910081Y-1735214D03*
D16*
G01*
X1979929Y-2495448D03*
G01*
X1979929Y-2344775D03*
G01*
X1830070Y-2495448D03*
G01*
X1830070Y-2344775D03*
G01*
X2659888Y-845210D03*
G01*
X2659888Y-694537D03*
D17*
G01*
X4839969Y-1084693D03*
D18*
G01*
X4839969Y-1235342D03*
D19*
G01*
X2919994Y-819998D03*
G01*
X3159992Y-819998D03*
D20*
G01*
X1369995Y-879998D03*
G01*
X2269994Y-879998D03*
D21*
G01*
X2974492Y-1115618D03*
G01*
X3101492Y-1115618D03*
G01*
X3228492Y-1115618D03*
G01*
X3355492Y-1115618D03*
G01*
X3482492Y-1115618D03*
G01*
X3609492Y-1115618D03*
G01*
X3736492Y-1115618D03*
G01*
X3863492Y-1115618D03*
G01*
X3990492Y-1115618D03*
G01*
X4117492Y-1115618D03*
G01*
X4244492Y-1115618D03*
G01*
X4371492Y-1115618D03*
G01*
X4498492Y-1115618D03*
G01*
X4625492Y-1115618D03*
G01*
X2974492Y-2064410D03*
G01*
X3101492Y-2064410D03*
G01*
X3228492Y-2064410D03*
G01*
X3355492Y-2064410D03*
G01*
X3482492Y-2064410D03*
G01*
X3609492Y-2064410D03*
G01*
X3736492Y-2064410D03*
G01*
X3863492Y-2064410D03*
G01*
X3990492Y-2064410D03*
G01*
X4117492Y-2064410D03*
G01*
X4244492Y-2064410D03*
G01*
X4371492Y-2064410D03*
G01*
X4498492Y-2064410D03*
G01*
X4625492Y-2064410D03*
D22*
G01*
X836993Y-222999D03*
D23*
G01*
X837006Y-477012D03*
G01*
X1091006Y-223012D03*
G01*
X1091006Y-477012D03*
G01*
X1345006Y-223012D03*
G01*
X1345006Y-477012D03*
G01*
X1599006Y-223012D03*
G01*
X1599006Y-477012D03*
G01*
X1853006Y-223012D03*
G01*
X1853006Y-477012D03*
G01*
X2107006Y-223012D03*
G01*
X2107006Y-477012D03*
G01*
X2361006Y-223012D03*
G01*
X2361006Y-477012D03*
G01*
X2615006Y-223012D03*
G01*
X2615006Y-477012D03*
G01*
X2869006Y-223012D03*
G01*
X2869006Y-477012D03*
G01*
X3123006Y-223012D03*
G01*
X3123006Y-477012D03*
G01*
X3377006Y-223012D03*
G01*
X3377006Y-477012D03*
G01*
X3631006Y-223012D03*
G01*
X3631006Y-477012D03*
G01*
X3885006Y-223012D03*
G01*
X3885006Y-477012D03*
G01*
X4139006Y-223012D03*
G01*
X4139006Y-477012D03*
G01*
X4393006Y-223012D03*
G01*
X4393006Y-477012D03*
G01*
X4647006Y-223012D03*
G01*
X4647006Y-477012D03*
G01*
X4901006Y-223012D03*
G01*
X4901006Y-477012D03*
G01*
X5155006Y-223012D03*
G01*
X5155006Y-477012D03*
G01*
X5409006Y-223012D03*
G01*
X5409006Y-477012D03*
G01*
X5663006Y-223012D03*
G01*
X5663006Y-477012D03*
D24*
G01*
X516001Y-1418005D03*
G01*
X516001Y-2281986D03*
G01*
X135991Y-1418005D03*
G01*
X135991Y-2281986D03*
D25*
G01*
X243000Y-769998D03*
D26*
G01*
X497001Y-770001D03*
D25*
G01*
X243000Y-1129997D03*
D26*
G01*
X497001Y-1130020D03*
D27*
G01*
X1475486Y-1806498D03*
G01*
X1602486Y-1552498D03*
G01*
X1729486Y-1806498D03*
G01*
X1856486Y-1552498D03*
G01*
X1983486Y-1806498D03*
G01*
X2110486Y-1552498D03*
G01*
X2237486Y-1806498D03*
G01*
X2364486Y-1552498D03*
D28*
G01*
X1256995Y-2847492D03*
G01*
X1510995Y-2847492D03*
G01*
X2328976Y-2847492D03*
G01*
X2582976Y-2847492D03*
D29*
G01*
X1132484Y-2136495D03*
G01*
X2707487Y-2136495D03*
M02*
