G04 Layer: BottomPasteMaskLayer*
G04 EasyEDA v6.5.40, 2025-01-31 22:11:59*
G04 63179efdc9ef42fbbe513a6e2370b4ab,79498b06e10c4258a2922cdf157d59c5,10*
G04 Gerber Generator version 0.2*
G04 Scale: 100 percent, Rotated: No, Reflected: No *
G04 Dimensions in millimeters *
G04 leading zeros omitted , absolute positions ,4 integer and 5 decimal *
%FSLAX45Y45*%
%MOMM*%

%AMMACRO1*21,1,$1,$2,0,0,$3*%
%ADD10MACRO1,2.2001X3.5001X0.0000*%
%ADD11MACRO1,1.1001X2.2001X-90.0000*%
%ADD12MACRO1,1.0998X2.2001X-90.0000*%
%ADD13MACRO1,0.8001X0.9002X-90.0000*%
%ADD14MACRO1,0.8001X0.9002X0.0000*%
%ADD15MACRO1,0.8001X0.9002X90.0000*%
%ADD16MACRO1,1.4999X1.3589X0.0000*%
%ADD17MACRO1,1.5001X1.3589X0.0000*%
%ADD18MACRO1,5.5001X1.4X0.0000*%
%ADD19O,0.5739892X2.3880064*%

%LPD*%
G36*
X870102Y-2054555D02*
G01*
X865073Y-2059584D01*
X865073Y-2139543D01*
X870102Y-2144572D01*
X950061Y-2144572D01*
X955090Y-2139543D01*
X955090Y-2059584D01*
X950061Y-2054555D01*
X925880Y-2054555D01*
X925880Y-2091537D01*
X892860Y-2091537D01*
X892860Y-2054555D01*
G37*
G36*
X870102Y-1895551D02*
G01*
X865073Y-1900580D01*
X865073Y-1980539D01*
X870102Y-1985568D01*
X894283Y-1985568D01*
X894283Y-1948586D01*
X927303Y-1948586D01*
X927303Y-1985568D01*
X950061Y-1985568D01*
X955090Y-1980539D01*
X955090Y-1900580D01*
X950061Y-1895551D01*
G37*
G36*
X870102Y-1535379D02*
G01*
X865073Y-1540408D01*
X865073Y-1620367D01*
X870102Y-1625396D01*
X894283Y-1625396D01*
X894283Y-1588363D01*
X927303Y-1588363D01*
X927303Y-1625396D01*
X950061Y-1625396D01*
X955090Y-1620367D01*
X955090Y-1540408D01*
X950061Y-1535379D01*
G37*
G36*
X870102Y-1694383D02*
G01*
X865073Y-1699412D01*
X865073Y-1779371D01*
X870102Y-1784400D01*
X950061Y-1784400D01*
X955090Y-1779371D01*
X955090Y-1699412D01*
X950061Y-1694383D01*
X925880Y-1694383D01*
X925880Y-1731365D01*
X892860Y-1731365D01*
X892860Y-1694383D01*
G37*
G36*
X1939950Y-2454605D02*
G01*
X1934921Y-2459634D01*
X1934921Y-2539593D01*
X1939950Y-2544622D01*
X2019909Y-2544622D01*
X2024938Y-2539593D01*
X2024938Y-2459634D01*
X2019909Y-2454605D01*
X1995728Y-2454605D01*
X1995728Y-2491587D01*
X1962708Y-2491587D01*
X1962708Y-2454605D01*
G37*
G36*
X1939950Y-2295601D02*
G01*
X1934921Y-2300630D01*
X1934921Y-2380589D01*
X1939950Y-2385618D01*
X1964131Y-2385618D01*
X1964131Y-2348636D01*
X1997151Y-2348636D01*
X1997151Y-2385618D01*
X2019909Y-2385618D01*
X2024938Y-2380589D01*
X2024938Y-2300630D01*
X2019909Y-2295601D01*
G37*
G36*
X1790090Y-2454605D02*
G01*
X1785061Y-2459634D01*
X1785061Y-2539593D01*
X1790090Y-2544622D01*
X1870049Y-2544622D01*
X1875078Y-2539593D01*
X1875078Y-2459634D01*
X1870049Y-2454605D01*
X1845868Y-2454605D01*
X1845868Y-2491587D01*
X1812848Y-2491587D01*
X1812848Y-2454605D01*
G37*
G36*
X1790090Y-2295601D02*
G01*
X1785061Y-2300630D01*
X1785061Y-2380589D01*
X1790090Y-2385618D01*
X1814271Y-2385618D01*
X1814271Y-2348636D01*
X1847291Y-2348636D01*
X1847291Y-2385618D01*
X1870049Y-2385618D01*
X1875078Y-2380589D01*
X1875078Y-2300630D01*
X1870049Y-2295601D01*
G37*
G36*
X2619908Y-804367D02*
G01*
X2614879Y-809396D01*
X2614879Y-889355D01*
X2619908Y-894384D01*
X2699867Y-894384D01*
X2704896Y-889355D01*
X2704896Y-809396D01*
X2699867Y-804367D01*
X2675686Y-804367D01*
X2675686Y-841349D01*
X2642666Y-841349D01*
X2642666Y-804367D01*
G37*
G36*
X2619908Y-645363D02*
G01*
X2614879Y-650392D01*
X2614879Y-730351D01*
X2619908Y-735380D01*
X2644089Y-735380D01*
X2644089Y-698347D01*
X2677109Y-698347D01*
X2677109Y-735380D01*
X2699867Y-735380D01*
X2704896Y-730351D01*
X2704896Y-650392D01*
X2699867Y-645363D01*
G37*
G36*
X4799990Y-1035507D02*
G01*
X4794961Y-1040536D01*
X4794961Y-1120495D01*
X4799990Y-1125524D01*
X4824171Y-1125524D01*
X4824171Y-1088542D01*
X4857191Y-1088542D01*
X4857191Y-1125524D01*
X4879949Y-1125524D01*
X4884978Y-1120495D01*
X4884978Y-1040536D01*
X4879949Y-1035507D01*
G37*
G36*
X4799990Y-1194511D02*
G01*
X4794961Y-1199540D01*
X4794961Y-1279499D01*
X4799990Y-1284528D01*
X4879949Y-1284528D01*
X4884978Y-1279499D01*
X4884978Y-1199540D01*
X4879949Y-1194511D01*
X4855768Y-1194511D01*
X4855768Y-1231544D01*
X4822748Y-1231544D01*
X4822748Y-1194511D01*
G37*
D10*
G01*
X5120106Y-1699996D03*
D11*
G01*
X5739866Y-1930006D03*
D12*
G01*
X5739866Y-1699996D03*
G01*
X5739866Y-1469999D03*
D13*
G01*
X6239992Y-1599996D03*
G01*
X6239992Y-1459992D03*
D14*
G01*
X5329986Y-1229994D03*
G01*
X5469991Y-1229994D03*
D15*
G01*
X1119886Y-1090015D03*
G01*
X1119886Y-1230020D03*
G01*
X4869942Y-2360015D03*
G01*
X4869942Y-2500020D03*
G01*
X5050027Y-2360015D03*
G01*
X5050027Y-2500020D03*
G01*
X5230113Y-2360015D03*
G01*
X5230113Y-2500020D03*
G01*
X5409945Y-2360015D03*
G01*
X5409945Y-2500020D03*
D14*
G01*
X3619906Y-2569972D03*
G01*
X3479901Y-2569972D03*
G01*
X3319932Y-2569972D03*
G01*
X3179927Y-2569972D03*
G01*
X760069Y-2249931D03*
G01*
X900074Y-2249931D03*
D16*
G01*
X2919996Y-819988D03*
D17*
G01*
X3159988Y-819988D03*
D18*
G01*
X1369999Y-880008D03*
G01*
X2269997Y-880008D03*
D19*
G01*
X2974492Y-1115618D03*
G01*
X3101492Y-1115618D03*
G01*
X3228492Y-1115618D03*
G01*
X3355492Y-1115618D03*
G01*
X3482492Y-1115618D03*
G01*
X3609492Y-1115618D03*
G01*
X3736492Y-1115618D03*
G01*
X3863492Y-1115618D03*
G01*
X3990492Y-1115618D03*
G01*
X4117492Y-1115618D03*
G01*
X4244492Y-1115618D03*
G01*
X4371492Y-1115618D03*
G01*
X4498492Y-1115618D03*
G01*
X4625492Y-1115618D03*
G01*
X2974492Y-2064410D03*
G01*
X3101492Y-2064410D03*
G01*
X3228492Y-2064410D03*
G01*
X3355492Y-2064410D03*
G01*
X3482492Y-2064410D03*
G01*
X3609492Y-2064410D03*
G01*
X3736492Y-2064410D03*
G01*
X3863492Y-2064410D03*
G01*
X3990492Y-2064410D03*
G01*
X4117492Y-2064410D03*
G01*
X4244492Y-2064410D03*
G01*
X4371492Y-2064410D03*
G01*
X4498492Y-2064410D03*
G01*
X4625492Y-2064410D03*
M02*
