G04 Layer: TopSolderMaskLayer*
G04 EasyEDA v6.5.40, 2025-01-31 22:11:59*
G04 63179efdc9ef42fbbe513a6e2370b4ab,79498b06e10c4258a2922cdf157d59c5,10*
G04 Gerber Generator version 0.2*
G04 Scale: 100 percent, Rotated: No, Reflected: No *
G04 Dimensions in millimeters *
G04 leading zeros omitted , absolute positions ,4 integer and 5 decimal *
%FSLAX45Y45*%
%MOMM*%

%AMMACRO1*1,1,$1,$2,$3*1,1,$1,$4,$5*1,1,$1,0-$2,0-$3*1,1,$1,0-$4,0-$5*20,1,$1,$2,$3,$4,$5,0*20,1,$1,$4,$5,0-$2,0-$3,0*20,1,$1,0-$2,0-$3,0-$4,0-$5,0*20,1,$1,0-$4,0-$5,$2,$3,0*4,1,4,$2,$3,$4,$5,0-$2,0-$3,0-$4,0-$5,$2,$3,0*%
%ADD10MACRO1,0.1016X-0.7874X-0.7874X0.7874X-0.7874*%
%ADD11C,1.6764*%
%ADD12R,1.0016X0.9016*%
%ADD13MACRO1,0.1016X0.432X0.4X0.432X-0.4*%
%ADD14MACRO1,0.1016X-0.432X0.4032X0.432X0.4032*%
%ADD15MACRO1,0.1016X-0.432X-0.4032X0.432X-0.4032*%
%ADD16MACRO1,0.1016X-0.4032X-0.432X-0.4032X0.432*%
%ADD17MACRO1,0.1016X0.4032X-0.432X0.4032X0.432*%
%ADD18MACRO1,0.1X0.6X0.4X0.6X-0.4*%
%ADD19MACRO1,0.1X0.6X0.35X0.6X-0.35*%
%ADD20O,1.7999964X1.1999976*%
%ADD21R,1.8296X1.2917*%
%ADD22MACRO1,0.1016X-0.85X0.7874X0.85X0.7874*%
%ADD23C,1.8016*%
%ADD24C,1.7000*%
%ADD25C,1.8000*%
%ADD26O,1.9000215999999999X3.1000191999999998*%

%LPD*%
D10*
G01*
X836993Y-222999D03*
D11*
G01*
X837006Y-477012D03*
G01*
X1091006Y-223012D03*
G01*
X1091006Y-477012D03*
G01*
X1345006Y-223012D03*
G01*
X1345006Y-477012D03*
G01*
X1599006Y-223012D03*
G01*
X1599006Y-477012D03*
G01*
X1853006Y-223012D03*
G01*
X1853006Y-477012D03*
G01*
X2107006Y-223012D03*
G01*
X2107006Y-477012D03*
G01*
X2361006Y-223012D03*
G01*
X2361006Y-477012D03*
G01*
X2615006Y-223012D03*
G01*
X2615006Y-477012D03*
G01*
X2869006Y-223012D03*
G01*
X2869006Y-477012D03*
G01*
X3123006Y-223012D03*
G01*
X3123006Y-477012D03*
G01*
X3377006Y-223012D03*
G01*
X3377006Y-477012D03*
G01*
X3631006Y-223012D03*
G01*
X3631006Y-477012D03*
G01*
X3885006Y-223012D03*
G01*
X3885006Y-477012D03*
G01*
X4139006Y-223012D03*
G01*
X4139006Y-477012D03*
G01*
X4393006Y-223012D03*
G01*
X4393006Y-477012D03*
G01*
X4647006Y-223012D03*
G01*
X4647006Y-477012D03*
G01*
X4901006Y-223012D03*
G01*
X4901006Y-477012D03*
G01*
X5155006Y-223012D03*
G01*
X5155006Y-477012D03*
G01*
X5409006Y-223012D03*
G01*
X5409006Y-477012D03*
G01*
X5663006Y-223012D03*
G01*
X5663006Y-477012D03*
D12*
G01*
X2299970Y-1080109D03*
G01*
X2299970Y-1220114D03*
D13*
G01*
X1499920Y-1230017D03*
G01*
X1499920Y-1090018D03*
D14*
G01*
X1299972Y-1235342D03*
D15*
G01*
X1299972Y-1084693D03*
D14*
G01*
X1649984Y-1235342D03*
D15*
G01*
X1649984Y-1084693D03*
D14*
G01*
X2080005Y-1235342D03*
D15*
G01*
X2080005Y-1084693D03*
D14*
G01*
X1890014Y-1235342D03*
D15*
G01*
X1890014Y-1084693D03*
D16*
G01*
X3205366Y-1970023D03*
D17*
G01*
X3054717Y-1970023D03*
D18*
G01*
X524004Y-2125007D03*
D19*
G01*
X524004Y-2001994D03*
G01*
X524004Y-1899996D03*
G01*
X524004Y-1799996D03*
G01*
X524004Y-1697997D03*
D18*
G01*
X524004Y-1574987D03*
D20*
G01*
X516001Y-1418005D03*
G01*
X516001Y-2281986D03*
G01*
X135991Y-1418005D03*
G01*
X135991Y-2281986D03*
D21*
G01*
X770001Y-1104493D03*
G01*
X770001Y-815492D03*
D22*
G01*
X243000Y-769998D03*
D23*
G01*
X497001Y-770001D03*
D22*
G01*
X243000Y-1129997D03*
D23*
G01*
X497001Y-1130020D03*
D24*
G01*
X1475486Y-1806498D03*
G01*
X1602486Y-1552498D03*
G01*
X1729486Y-1806498D03*
G01*
X1856486Y-1552498D03*
G01*
X1983486Y-1806498D03*
G01*
X2110486Y-1552498D03*
G01*
X2237486Y-1806498D03*
G01*
X2364486Y-1552498D03*
D25*
G01*
X1256995Y-2847492D03*
G01*
X1510995Y-2847492D03*
G01*
X2328976Y-2847492D03*
G01*
X2582976Y-2847492D03*
D26*
G01*
X1132484Y-2136495D03*
G01*
X2707487Y-2136495D03*
M02*
